<svg xmlns="http://www.w3.org/2000/svg" xmlns:xlink="http://www.w3.org/1999/xlink" width="500" zoomAndPan="magnify" viewBox="0 0 375 374.999991" height="500" preserveAspectRatio="xMidYMid meet" version="1.0"><defs><clipPath id="f91505a353"><path d="M 14.09375 22 L 359 22 L 359 347 L 14.09375 347 Z M 14.09375 22 " clip-rule="nonzero"/></clipPath></defs><g clip-path="url(#f91505a353)"><path fill="#ff6912" d="M 249.117188 22.097656 C 241.773438 22.199219 231.328125 23.5 216.96875 26.074219 C 209.140625 27.476562 207.207031 28.160156 205.140625 30.253906 C 202.777344 32.648438 202.65625 33.195312 202.398438 42.949219 C 202.128906 52.964844 202.164062 53.171875 204.359375 54.605469 C 205.589844 55.40625 209.699219 58.785156 213.492188 62.113281 C 222.355469 69.890625 223.902344 69.976562 232.796875 63.210938 C 236.667969 60.269531 236.867188 59.222656 233.574219 59.167969 C 231.914062 59.140625 226.371094 56.621094 227.792969 56.542969 C 228.105469 56.523438 231.5 57.566406 235.335938 58.851562 C 247.207031 61.796875 251.824219 49.386719 261.234375 44.933594 C 280.566406 49.167969 273.328125 75.425781 288.726562 97.820312 C 297.496094 114.199219 304.960938 116.304688 324.851562 108.015625 C 326.042969 107.519531 326.375 107.613281 325.9375 108.320312 C 324.953125 109.914062 311.394531 113.878906 306.929688 113.878906 C 301.324219 113.878906 297.570312 112.066406 293.816406 107.546875 L 290.59375 103.671875 C 273.652344 101.097656 262.472656 108.65625 257.554688 116.835938 C 256.691406 117.875 238.125 130.640625 236.410156 136.8125 C 235.457031 121.242188 253.609375 117 252.453125 116.839844 C 236.722656 119.707031 197.703125 118.105469 187.761719 132.871094 C 177.933594 117.132812 188.800781 101.148438 190.574219 94.992188 C 192.804688 87.492188 191.441406 79.40625 187.4375 72.886719 C 186.917969 70.695312 185.238281 68.792969 183.597656 67.222656 C 180.871094 64.621094 177.347656 62.902344 174.886719 60.066406 C 172.273438 57.054688 170.6875 52.816406 166.535156 51.414062 C 159.457031 49.019531 151.890625 51.25 145.222656 53.796875 C 141.3125 55.296875 137.257812 56.34375 133.027344 56.621094 C 129.449219 56.859375 122.253906 52.910156 122.296875 56.480469 C 122.324219 58.648438 129.808594 55.023438 127.730469 56.277344 C 125.777344 57.457031 123.757812 58.074219 121.265625 58.425781 C 116.980469 59.03125 112.699219 59.542969 108.34375 59.667969 C 107.394531 59.695312 105.820312 59.121094 107.773438 59.808594 C 110.867188 60.890625 113.355469 62.730469 116.605469 63.925781 C 119.816406 65.105469 114.566406 65.71875 113.394531 65.804688 C 106.636719 66.300781 99.339844 67.988281 93.074219 65.359375 C 91.808594 64.828125 90.910156 64.914062 91.996094 66.351562 C 94.320312 69.425781 98.402344 70.234375 101.894531 71.34375 C 103.25 71.777344 106.902344 72.40625 106.675781 72.425781 C 102.203125 72.824219 98.890625 77.3125 94.238281 76.648438 C 92.957031 76.46875 91.914062 76.554688 93.652344 77.304688 C 100.453125 80.242188 106.574219 85.144531 113.832031 86.847656 C 112.589844 89.847656 112.824219 92.464844 114.414062 96.628906 C 115.847656 100.386719 115.832031 100.640625 113.816406 104.945312 C 112.671875 107.390625 106.074219 111.421875 104.925781 112.175781 C 102.117188 114.011719 109.257812 114.246094 112.472656 117.613281 C 114.855469 120.105469 113.742188 123.636719 112.863281 125.851562 C 118.070312 125.25 116.191406 126.15625 120.652344 127.332031 C 116.433594 127.796875 113.914062 129.074219 114.722656 130.308594 C 117.382812 134.371094 121.046875 138.546875 126.945312 144.847656 C 137.199219 141.269531 140.679688 137.113281 143.089844 138.363281 C 149.445312 141.648438 150.113281 145.335938 145.714844 152.84375 C 143.097656 157.3125 141.621094 158.039062 131.308594 159.941406 C 115.90625 162.78125 102.820312 171.21875 98.105469 181.34375 C 92.691406 189.058594 98.542969 204.386719 98.542969 204.386719 C 98.542969 204.386719 90.484375 196.570312 93.390625 185.484375 C 78.273438 190.832031 68.773438 180.203125 54.058594 196.425781 C 50.878906 201.234375 50.335938 200.179688 53.347656 195.042969 C 55.539062 191.300781 55.710938 190.378906 55.160156 185.246094 C 54.828125 182.128906 53.371094 176.191406 51.929688 172.050781 C 48.800781 163.089844 46.980469 150.925781 47.875 144.957031 C 48.394531 141.511719 48.757812 140.851562 49.714844 141.644531 C 54.078125 145.269531 61.078125 144.324219 65.191406 139.5625 C 66.550781 137.984375 68.769531 136.132812 70.121094 135.445312 C 74.460938 133.246094 76.179688 128.066406 76.179688 117.195312 C 76.179688 108.011719 81.019531 102.515625 77.609375 103.296875 C 72.976562 104.363281 50.5 89.738281 47.5625 92.410156 C 39.472656 95.195312 34.25 118.722656 27.328125 125.175781 C 27.359375 141.5 24.84375 158.957031 20.714844 172.144531 C 14.664062 191.125 14.03125 194.214844 14.039062 204.859375 C 14.046875 215.808594 16.265625 225.90625 20.226562 233.015625 C 21.4375 235.1875 22.207031 237.660156 21.9375 238.511719 C 21.578125 239.648438 22.40625 240.527344 25.089844 241.855469 C 28.6875 243.636719 28.816406 243.636719 36.992188 241.996094 C 59.257812 235.078125 67.730469 261.234375 104.390625 238.210938 C 110.140625 244.152344 96.515625 268.214844 107.3125 274.316406 C 107.3125 274.316406 129.179688 272.289062 134.433594 269.921875 C 131.597656 276.050781 107.351562 281.066406 107.351562 281.066406 C 98.113281 287.980469 115.109375 314.332031 101.429688 335.882812 C 101.351562 336.007812 101.28125 336.117188 101.28125 336.136719 C 101.28125 337.5 121.605469 325.582031 134.738281 326.972656 C 142.378906 327.78125 166.804688 333.449219 174.386719 340.722656 C 187.085938 352.902344 213.039062 342.152344 219.46875 339.070312 C 223.25 323.761719 216.453125 294.617188 206.289062 283.066406 C 203.765625 280.269531 203.34375 279.230469 203.800781 276.945312 C 204.195312 274.96875 204.035156 274.289062 203.238281 274.542969 C 192.339844 285.867188 181.863281 291.21875 179.269531 311.496094 C 179.261719 284.1875 196.636719 280.199219 202.0625 272.65625 C 210.667969 260.707031 225.867188 246.652344 237.84375 237.734375 C 240.46875 235.777344 205.417969 233.597656 205.269531 215.457031 C 208.878906 232.957031 248.757812 230.230469 250.574219 228.714844 C 257.273438 223.117188 263.984375 214.992188 269.742188 205.410156 C 274.042969 198.257812 279.355469 186.777344 278.679688 186.101562 C 275.367188 188.847656 267.566406 192.453125 265.796875 188.230469 C 269.121094 191 276.695312 183.386719 280.769531 182.074219 C 309.136719 174.636719 323.605469 159.296875 341.984375 130.832031 C 346.570312 123.730469 357.195312 102.800781 358.027344 99.226562 C 360.738281 87.597656 339.683594 62.53125 311.929688 44.351562 C 290.640625 30.402344 277.234375 25.191406 255.457031 22.394531 C 253.667969 22.164062 251.566406 22.066406 249.117188 22.097656 Z M 249.117188 22.097656 " fill-opacity="1" fill-rule="nonzero"/></g></svg>